/* XPM */
static char * cafe_icon_xpm[] = {
"41 48 548 2",
"  	c None",
". 	c #303130",
"+ 	c #262726",
"@ 	c #343534",
"# 	c #1E1F1E",
"$ 	c #000000",
"% 	c #080808",
"& 	c #202020",
"* 	c #2D2D2D",
"= 	c #020202",
"- 	c #0F1618",
"; 	c #2E4650",
"> 	c #1D1F1F",
", 	c #2E2E2E",
"' 	c #3B3C3B",
") 	c #0B0B0B",
"! 	c #0F191D",
"~ 	c #284450",
"{ 	c #282A2B",
"] 	c #0C0C0C",
"^ 	c #3C3D3C",
"/ 	c #161616",
"( 	c #010101",
"_ 	c #141617",
": 	c #253135",
"< 	c #080909",
"[ 	c #283438",
"} 	c #1D1D1D",
"| 	c #0A0B0B",
"1 	c #253338",
"2 	c #2B4550",
"3 	c #2B424B",
"4 	c #1B2426",
"5 	c #121C21",
"6 	c #2D3030",
"7 	c #1D2628",
"8 	c #2C434D",
"9 	c #2A444F",
"0 	c #243136",
"a 	c #1E1E1E",
"b 	c #2A2B2A",
"c 	c #030303",
"d 	c #202628",
"e 	c #294450",
"f 	c #2B434C",
"g 	c #324952",
"h 	c #2A414B",
"i 	c #1E2729",
"j 	c #090909",
"k 	c #2F302F",
"l 	c #3D3E3D",
"m 	c #121212",
"n 	c #14191B",
"o 	c #2E3F46",
"p 	c #28404A",
"q 	c #171B1C",
"r 	c #151515",
"s 	c #3E3F3E",
"t 	c #1F201F",
"u 	c #0F1010",
"v 	c #26363C",
"w 	c #2A4450",
"x 	c #2A4651",
"y 	c #27373D",
"z 	c #0E1011",
"A 	c #1F1F1F",
"B 	c #2C2D2C",
"C 	c #070809",
"D 	c #242D30",
"E 	c #2C454F",
"F 	c #2A434D",
"G 	c #232E32",
"H 	c #1B2123",
"I 	c #2D434B",
"J 	c #2C4149",
"K 	c #192123",
"L 	c #020302",
"M 	c #3E3E3E",
"N 	c #111111",
"O 	c #121617",
"P 	c #2A3B41",
"Q 	c #2B3C43",
"R 	c #121618",
"S 	c #070707",
"T 	c #707270",
"U 	c #353C3D",
"V 	c #222B2E",
"W 	c #222A2B",
"X 	c #2F393C",
"Y 	c #2E4853",
"Z 	c #304853",
"` 	c #2E383A",
" .	c #222C2E",
"..	c #222C2F",
"+.	c #353E41",
"@.	c #747574",
"#.	c #595A59",
"$.	c #F7FBF7",
"%.	c #D5D9D5",
"&.	c #505150",
"*.	c #030404",
"=.	c #21292B",
"-.	c #29434E",
";.	c #2D454F",
">.	c #1F282B",
",.	c #040505",
"'.	c #050505",
").	c #5E5F5E",
"!.	c #DBDEDB",
"~.	c #5C5D5C",
"{.	c #3A3D2F",
"].	c #6E706D",
"^.	c #DFE2DF",
"/.	c #F8FCF8",
"(.	c #B5B7B5",
"_.	c #292C2C",
":.	c #293E46",
"<.	c #2F4148",
"[.	c #323534",
"}.	c #C2C4C2",
"|.	c #D9DCD9",
"1.	c #676765",
"2.	c #38221C",
"3.	c #474F2F",
"4.	c #596439",
"5.	c #919391",
"6.	c #CED1CE",
"7.	c #0F1011",
"8.	c #1F292D",
"9.	c #1D272A",
"0.	c #121314",
"a.	c #CFD2CF",
"b.	c #838583",
"c.	c #101010",
"d.	c #662C1F",
"e.	c #562217",
"f.	c #A1BB4E",
"g.	c #181B12",
"h.	c #3C4034",
"i.	c #333A20",
"j.	c #090A0A",
"k.	c #233136",
"l.	c #253237",
"m.	c #371D17",
"n.	c #3B251F",
"o.	c #1E120E",
"p.	c #BE442A",
"q.	c #512218",
"r.	c #A8C450",
"s.	c #6C7B41",
"t.	c #474F34",
"u.	c #A7C250",
"v.	c #768746",
"w.	c #1C1F14",
"x.	c #111517",
"y.	c #2E3E44",
"z.	c #2A4551",
"A.	c #283A41",
"B.	c #111515",
"C.	c #1D100D",
"D.	c #8B3826",
"E.	c #C74428",
"F.	c #592D22",
"G.	c #843524",
"H.	c #C84428",
"I.	c #512319",
"J.	c #474F30",
"K.	c #A7C350",
"L.	c #262B19",
"M.	c #484F34",
"N.	c #A4BF4F",
"O.	c #5E6A3B",
"P.	c #0D0E0A",
"Q.	c #171F22",
"R.	c #2B424C",
"S.	c #30444C",
"T.	c #1A2023",
"U.	c #010202",
"V.	c #0D0807",
"W.	c #6C2D1F",
"X.	c #C3472C",
"Y.	c #552C22",
"Z.	c #2D1712",
"`.	c #C7472C",
" +	c #552319",
".+	c #82944B",
"++	c #4A5236",
"@+	c #99B14C",
"#+	c #3F452C",
"$+	c #050606",
"%+	c #202B2F",
"&+	c #2C444E",
"*+	c #1E2A2E",
"=+	c #050607",
"-+	c #46241C",
";+	c #B4442C",
">+	c #592E24",
",+	c #9F402B",
"'+	c #572419",
")+	c #9FBA4E",
"!+	c #7E8E62",
"~+	c #9BB361",
"{+	c #9AB261",
"]+	c #9CB456",
"^+	c #9EB853",
"/+	c #93A981",
"(+	c #778743",
"_+	c #292D1E",
":+	c #0C0E0E",
"<+	c #27353A",
"[+	c #2B4551",
"}+	c #364E5F",
"|+	c #395263",
"1+	c #2A4552",
"2+	c #28434F",
"3+	c #375061",
"4+	c #384F5E",
"5+	c #25363D",
"6+	c #0B0E0F",
"7+	c #321610",
"8+	c #9E3E29",
"9+	c #C74429",
"0+	c #9C4834",
"a+	c #542319",
"b+	c #A5C14E",
"c+	c #8EA468",
"d+	c #8DA36F",
"e+	c #93AA53",
"f+	c #9AB08F",
"g+	c #95AF4F",
"h+	c #A2BD4E",
"i+	c #8CA051",
"j+	c #A6C14F",
"k+	c #A6C151",
"l+	c #65733B",
"m+	c #10110C",
"n+	c #1A1D1E",
"o+	c #394857",
"p+	c #5B728F",
"q+	c #3D5568",
"r+	c #405263",
"s+	c #191C1E",
"t+	c #120B0A",
"u+	c #6E2E20",
"v+	c #C4452A",
"w+	c #C9482C",
"x+	c #C64328",
"y+	c #C34227",
"z+	c #C44327",
"A+	c #A6C24F",
"B+	c #9AB182",
"C+	c #8BA259",
"D+	c #9CB64F",
"E+	c #99B08C",
"F+	c #87A147",
"G+	c #92A86F",
"H+	c #8EA368",
"I+	c #92A965",
"J+	c #8EA262",
"K+	c #8A9E75",
"L+	c #484F46",
"M+	c #0D0B0E",
"N+	c #292F3B",
"O+	c #2F3540",
"P+	c #51647C",
"Q+	c #1D2629",
"R+	c #2A2D39",
"S+	c #070404",
"T+	c #4E251D",
"U+	c #935858",
"V+	c #A14A40",
"W+	c #A15551",
"X+	c #BF4127",
"Y+	c #B74834",
"Z+	c #A2534D",
"`+	c #A45752",
" @	c #AA4637",
".@	c #C34327",
"+@	c #AC564F",
"@@	c #A75148",
"#@	c #9D514E",
"$@	c #C14127",
"%@	c #A3BF51",
"&@	c #97AE89",
"*@	c #93A874",
"=@	c #8DA463",
"-@	c #94AE6A",
";@	c #A4C04D",
">@	c #95AC73",
",@	c #93A964",
"'@	c #9FB958",
")@	c #97AC8A",
"!@	c #9AB17F",
"~@	c #8BA05D",
"{@	c #8BA247",
"]@	c #464C4D",
"^@	c #060507",
"/@	c #444D63",
"(@	c #111318",
"_@	c #4C3941",
":@	c #A3422D",
"<@	c #A36163",
"[@	c #B05146",
"}@	c #C24227",
"|@	c #AA6D73",
"1@	c #A5493E",
"2@	c #AA5A56",
"3@	c #A96364",
"4@	c #B14A39",
"5@	c #BB452E",
"6@	c #AD574F",
"7@	c #AC5F5C",
"8@	c #AB4E43",
"9@	c #9A504D",
"0@	c #99B350",
"a@	c #9DB494",
"b@	c #8EAA46",
"c@	c #A0BC48",
"d@	c #A5C14D",
"e@	c #A4BF4E",
"f@	c #99AF87",
"g@	c #91A752",
"h@	c #A3BE4E",
"i@	c #98AF79",
"j@	c #889C62",
"k@	c #8C9F66",
"l@	c #A1BA4E",
"m@	c #A3BE50",
"n@	c #819261",
"o@	c #5C6935",
"p@	c #292E3B",
"q@	c #70525B",
"r@	c #9C5553",
"s@	c #BE4329",
"t@	c #AC7681",
"u@	c #B0432E",
"v@	c #BF4126",
"w@	c #A76C73",
"x@	c #A74537",
"y@	c #A93D2A",
"z@	c #9E5554",
"A@	c #A86F78",
"B@	c #B14837",
"C@	c #AC6A6E",
"D@	c #A85853",
"E@	c #AD4331",
"F@	c #C04228",
"G@	c #9AB269",
"H@	c #93A97F",
"I@	c #98B34A",
"J@	c #A2BD55",
"K@	c #9AB08E",
"L@	c #8FA450",
"M@	c #9FB94C",
"N@	c #98B164",
"O@	c #92A776",
"P@	c #97B055",
"Q@	c #95AD55",
"R@	c #8C9F6A",
"S@	c #798A44",
"T@	c #0A0B0E",
"U@	c #8B6C7B",
"V@	c #A74638",
"W@	c #A66161",
"X@	c #AA5146",
"Y@	c #A74B3E",
"Z@	c #A25C5E",
"`@	c #B94129",
" #	c #9D5E60",
".#	c #B4442F",
"+#	c #A46264",
"@#	c #B2432F",
"##	c #AE5B56",
"$#	c #A26062",
"%#	c #AE5247",
"&#	c #A2473B",
"*#	c #562319",
"=#	c #96B24D",
"-#	c #95B14D",
";#	c #94B147",
">#	c #94AD4E",
",#	c #91A94C",
"'#	c #8EA466",
")#	c #87995B",
"!#	c #9AB262",
"~#	c #9AB08B",
"{#	c #97AF5D",
"]#	c #92A950",
"^#	c #91A850",
"/#	c #718040",
"(#	c #010000",
"_#	c #76362E",
":#	c #B43F28",
"<#	c #BE4229",
"[#	c #A84334",
"}#	c #AA4231",
"|#	c #B2422E",
"1#	c #B3412C",
"2#	c #A94332",
"3#	c #AB4231",
"4#	c #C54327",
"5#	c #8FA661",
"6#	c #8EA16C",
"7#	c #9BB35F",
"8#	c #91A76F",
"9#	c #9DB750",
"0#	c #7D8F45",
"a#	c #883423",
"b#	c #98B147",
"c#	c #97AE48",
"d#	c #A3BD4E",
"e#	c #474E2F",
"f#	c #11130B",
"g#	c #6D7B42",
"h#	c #A5C050",
"i#	c #C4462A",
"j#	c #873422",
"k#	c #140D0C",
"l#	c #2B301B",
"m#	c #899D49",
"n#	c #A83E27",
"o#	c #381A13",
"p#	c #2D321E",
"q#	c #90A749",
"r#	c #A8C451",
"s#	c #A9C553",
"t#	c #A8442E",
"u#	c #311A15",
"v#	c #0E1008",
"w#	c #6C7A41",
"x#	c #A1BA54",
"y#	c #859751",
"z#	c #A9C552",
"A#	c #A04430",
"B#	c #C44328",
"C#	c #C54529",
"D#	c #7E3626",
"E#	c #120907",
"F#	c #434A2E",
"G#	c #1A1D10",
"H#	c #5B281D",
"I#	c #211310",
"J#	c #903926",
"K#	c #C74529",
"L#	c #502218",
"M#	c #0B0C0B",
"N#	c #2A2F1B",
"O#	c #582A20",
"P#	c #301B16",
"Q#	c #0C0503",
"R#	c #060606",
"S#	c #1A1A1A",
"T#	c #7D9045",
"U#	c #56291F",
"V#	c #181818",
"W#	c #1D1F18",
"X#	c #869B48",
"Y#	c #A23E28",
"Z#	c #28120D",
"`#	c #333433",
" $	c #070807",
".$	c #4D582C",
"+$	c #9DB651",
"@$	c #99B053",
"#$	c #8A9F4C",
"$$	c #A8422B",
"%$	c #B24831",
"&$	c #C2462B",
"*$	c #5B271C",
"=$	c #0B0706",
"-$	c #363636",
";$	c #10100E",
">$	c #677737",
",$	c #A5BF54",
"'$	c #2F3421",
")$	c #49532A",
"!$	c #98AF50",
"~$	c #AF442D",
"{$	c #522319",
"]$	c #321C18",
"^$	c #C34328",
"/$	c #C6462B",
"($	c #763021",
"_$	c #150B09",
":$	c #212121",
"<$	c #25281D",
"[$	c #819544",
"}$	c #899F47",
"|$	c #020301",
"1$	c #494E39",
"2$	c #4F3029",
"3$	c #0D0908",
"4$	c #040303",
"5$	c #A13D28",
"6$	c #C8462A",
"7$	c #A03E29",
"8$	c #301711",
"9$	c #323232",
"0$	c #030302",
"a$	c #3D4527",
"b$	c #94AC4C",
"c$	c #454D2E",
"d$	c #4A4C4A",
"e$	c #515351",
"f$	c #5B2519",
"g$	c #AC422C",
"h$	c #4E2218",
"i$	c #030202",
"j$	c #373837",
"k$	c #242424",
"l$	c #0B0C08",
"m$	c #566331",
"n$	c #A3BD52",
"o$	c #0F100B",
"p$	c #4B4D4B",
"q$	c #525352",
"r$	c #0F0B0A",
"s$	c #B4452C",
"t$	c #6D2C1F",
"u$	c #0D0A09",
"v$	c #242524",
"w$	c #171717",
"x$	c #191B13",
"y$	c #738440",
"z$	c #A6C150",
"A$	c #616D3E",
"B$	c #4C4E4C",
"C$	c #772D1D",
"D$	c #C5452A",
"E$	c #8C3927",
"F$	c #24130F",
"G$	c #1B1B1B",
"H$	c #0F0F0F",
"I$	c #303621",
"J$	c #85974D",
"K$	c #6A6F62",
"L$	c #726762",
"M$	c #9E412D",
"N$	c #301C17",
"O$	c #060704",
"P$	c #4C4E49",
"Q$	c #CCCFCC",
"R$	c #544642",
"S$	c #060403",
"T$	c #252525",
"U$	c #292A29",
"V$	c #040404",
"W$	c #353635",
"                                      . + @                                       ",
"                                    # $ % $ &                                     ",
"                                * = $ - ; > $ = ,                                 ",
"                            ' ) $ $ $ ! ~ { $ $ $ ] ^                             ",
"                          / ( _ : < $ ! ~ { $ < [ _ ( /                           ",
"                      } = | 1 2 ~ 3 4 5 ~ 6 7 8 ~ 9 0 | = a                       ",
"                  b % c d 3 ~ ~ ~ ~ e f ~ g e ~ ~ ~ ~ h i c j k                   ",
"              l m ( n o ~ ~ ~ ~ ~ ~ ~ ~ ~ ~ ~ ~ ~ ~ ~ ~ ~ p q ( r s               ",
"            t ( u v w ~ ~ ~ ~ ~ ~ ~ ~ ~ ~ ~ ~ ~ ~ ~ ~ ~ ~ ~ x y z ( A             ",
"        B = C D E ~ ~ ~ ~ ~ ~ ~ ~ ~ ~ ~ ~ ~ ~ ~ ~ ~ ~ ~ ~ ~ ~ ~ F G < c k         ",
"    l j = H I ~ ~ ~ ~ ~ ~ ~ ~ ~ ~ ~ ~ ~ ~ ~ ~ ~ ~ ~ ~ ~ ~ ~ ~ ~ ~ ~ J K L j M     ",
"  N ( O P e ~ ~ ~ ~ ~ ~ ~ ~ ~ ~ ~ ~ ~ ~ ~ ~ ~ ~ ~ ~ ~ ~ ~ ~ ~ ~ ~ ~ ~ ~ Q R ( /   ",
"S r T U V W W W W X Y ~ ~ ~ ~ ~ ~ ~ ~ ~ ~ ~ ~ ~ ~ ~ ~ ~ ~ ~ Z ` V V  .....+.@./ ( ",
"S #.$.%.&.c $ *.=.-.~ ~ ~ ~ ~ ~ ~ ~ ~ ~ ~ ~ ~ ~ ~ ~ ~ ~ ~ ~ ~ ;.>.,.$ '.).!.$.~.$ ",
"S {.].^./.(._.:.~ ~ ~ ~ ~ ~ ~ ~ ~ ~ ~ ~ ~ ~ ~ ~ ~ ~ ~ ~ ~ ~ ~ ~ ~ <.[.}./.|.1.2.$ ",
"S 3.4.r 5.6.7.8.F ~ ~ ~ ~ ~ ~ ~ ~ ~ ~ ~ ~ ~ ~ ~ ~ ~ ~ ~ ~ ~ ~ ~ E 9.0.a.b.c.d.e.$ ",
"S 3.f.g.$ h.i.= j.k.2 ~ ~ ~ ~ ~ ~ ~ ~ ~ ~ ~ ~ ~ ~ ~ ~ ~ ~ ~ w l.j.= m.n.$ o.p.q.$ ",
"S 3.r.s.( t.u.v.w.$ x.y.z.~ ~ ~ ~ ~ ~ ~ ~ ~ ~ ~ ~ ~ ~ ~ ~ A.B.$ C.D.E.F.( G.H.I.$ ",
"S J.r.K.L.M.r.r.N.O.P.( Q.R.~ ~ ~ ~ ~ ~ ~ ~ ~ ~ ~ ~ e S.T.U.V.W.X.H.H.Y.Z.`.H. +$ ",
"S J.r.r..+++r.r.r.r.@+#+'.$+%+&+~ ~ ~ ~ ~ ~ ~ ~ ~ 2 *+=+= -+;+H.H.H.H.>+,+H.H.'+$ ",
"S J.r.r.)+!+~+{+]+K.^+/+(+_+( :+<+[+}+|+1+2+3+4+5+6+( 7+8+9+H.H.H.H.H.0+E.H.H.a+$ ",
"S 3.r.r.b+c+d+e+f+g+h+i+j+k+l+m+$ n+o+p+q+~ r+s+$ t+u+v+w+H.x+y+H.H.H.z+x+H.H.I.$ ",
"S 3.r.r.A+B+C+D+E+F+G+H+K.I+J+K+L+M+N+O+P+Q+R+S+T+U+V+W+X+Y+Z+`+ @.@+@@@#@$@H.I.$ ",
"S 3.r.r.%@&@*@=@-@;@>@,@'@)@@+!@~@{@]@^@/@(@_@:@<@[@}@|@1@2@3@4@5@6@7@8@9@x+H.I.$ ",
"S 3.r.r.0@a@b@c@d@e@f@g@h@i@j@k@l@m@n@o@p@q@r@s@t@u@v@w@x@y@z@A@B@C@D@E@F@H.H.I.$ ",
"S J.r.r.G@H@I@r.r.J@K@L@M@N@O@P@A+Q@R@S@T@U@V@9+W@X@Y@Z@`@ #.#+#@###$#%#&#H.H.*#$ ",
"S J.r.r.=#-#;#r.r.j+>#,#'#)#!#~#{#]#^#/#(#_#:#H.<#[#}#$@H.|#[#1#H.y+2#3#4#H.H.'+$ ",
"S J.r.r.r.r.r.r.r.r.r.r.5#6#7#8#9#r.r.0#$ a#H.H.H.H.H.H.H.H.H.H.H.H.H.H.H.H.H.a+$ ",
"S 3.r.r.r.r.r.r.r.r.r.r.r.b#c#d#r.r.r.0#$ a#H.H.H.H.H.H.H.H.H.H.H.H.H.H.H.H.H.I.$ ",
"S e#r.r.r.r.r.r.r.r.r.r.r.r.r.r.r.r.r.0#$ a#H.H.H.H.H.H.H.H.H.H.H.H.H.H.H.H.H.I.$ ",
"S f#g#h#r.r.r.r.r.r.r.r.r.r.r.r.r.r.r.0#$ a#H.H.H.H.H.H.H.H.H.H.H.H.H.H.H.i#j#k#( ",
"S $ ( l#m#r.r.r.r.r.r.r.r.r.r.r.r.r.r.0#$ a#H.H.H.H.H.H.H.H.H.H.H.H.H.H.n#o#c $ $ ",
"S $ ( p#q#r.r#s#r.r.r.r.r.r.r.r.r.r.r.0#$ a#H.H.H.H.H.H.H.H.H.H.H.H.H.w+t#u#= $ $ ",
"S v#w#k+x#y#s#z#r#r.r.r.r.r.r.r.r.r.r.0#$ a#H.H.H.H.H.H.H.H.H.H.H.H.H.A#B#C#D#E#$ ",
"S F#u.S@G#M.r.r.r.r.r.r.r.r.r.r.r.r.r.0#$ a#H.H.H.H.H.H.H.H.H.H.H.H.H.H#I#J#K#L#( ",
"M#S N#= $ M.r.r.r.r.r.r.r.r.r.r.r.r.r.0#$ a#H.H.H.H.H.H.H.H.H.H.H.H.H.O#$ = P#Q#R#",
"  S#( $ $ M.r.r.r.r.r.r.r.r.r.r.r.r.r.T#$ a#H.H.H.H.H.H.H.H.H.H.H.H.H.U#$ $ ( S#  ",
"      V#$ W#X#r.r.r.r.r.r.r.r.r.r.r.r.T#$ a#H.H.H.H.H.H.H.H.H.H.H.H.Y#Z#$ V#      ",
"        `#S  $.$+$r.r.r.r.r.r.@$#$r.r.T#$ a#H.H.$$%$H.H.H.H.H.H.&$*$=$S -$        ",
"            t c ;$>$,$r.r.r.r.h#'$)$!$T#$ a#~${$]$^$H.H.H.H./$($_$c :$            ",
"                c.( <$[$r.r.r.r.}$|$P.1$^ 2$3$4$5$H.H.H.6$7$8$c m                 ",
"                  9$% 0$a$b$s#r.s#c$$ d$$.e$= f$H.H.H.g$h$i$) j$                  ",
"                      k$'.l$m$n$r.@+o$p$/.q$r$s$H.p.t$u$S v$                      ",
"                          w$= x$y$z$A$B$/.q$C$D$E$F$c G$                          ",
"                              H$( I$J$K$/.L$M$N$= H$                              ",
"                                ' S O$P$Q$R$S$% T$                                ",
"                                    U$V$$ c U$                                    ",
"                                        W$                                        "};
