/* XPM */
static char *cafe-small-logo[] = {
/* width height num_colors chars_per_pixel */
"    75    87        5            1",
/* colors */
". c #000000",
"# c #363636",
"a c #5c5c5c",
"b c #6d6d6d",
"c c #ffffff",
/* pixels */
"ccccccccccccccccccccccccccccccccccccccccccccccccccccccccccccccccccccccccccc",
"cccccccccccccccccccccccccccccccccccc..ccccccccccccccccccccccccccccccccccccc",
"ccccccccccccccccccccccccccccccccccc....cccccccccccccccccccccccccccccccccccc",
"cccccccccccccccccccccccccccccccc..........ccccccccccccccccccccccccccccccccc",
"ccccccccccccccccccccccccccccccc.............ccccccccccccccccccccccccccccccc",
"ccccccccccccccccccccccccccccc......###.......cccccccccccccccccccccccccccccc",
"ccccccccccccccccccccccccccc........###.........cccccccccccccccccccccccccccc",
"ccccccccccccccccccccccccc..........###...........cccccccccccccccccccccccccc",
"cccccccccccccccccccccccc...........###............ccccccccccccccccccccccccc",
"cccccccccccccccccccccc......####...###.....####......cccccccccccccccccccccc",
"cccccccccccccccccccc.......######..###...######.......ccccccccccccccccccccc",
"ccccccccccccccccccc......#############..#########......cccccccccccccccccccc",
"cccccccccccccccc......##############################......ccccccccccccccccc",
"ccccccccccccccc......#################################.....cccccccccccccccc",
"ccccccccccccc.......##################################......ccccccccccccccc",
"ccccccccccc......########################################......cccccccccccc",
"cccccccccc......###########################################......cccccccccc",
"ccccccccc......#############################################......ccccccccc",
"cccccc.......#################################################......ccccccc",
"cccc......#####################################################.......ccccc",
"cccc......#######################################################......cccc",
".......############################################################......cc",
".....################################################################.....c",
"....##.............#####################################.............a....c",
"....#####.......###########################################.......aaaaa...c",
"....######.....#############################################.....aaaaaa...c",
".....######..################################################..aaaaaa.....c",
".......####..################################################..aaa....a...c",
"....b....##....############################################....aa....aa...c",
"....bb..........##########################################...........aa...c",
"....bb....b.......#######################################......a.....aa...c",
"....bbb...bbbb......##################################......aaaa...aaaa...c",
"....bbb...bbbbb.......###############################......aaaaa...aaaa...c",
"....bbbb..bbbbbbb......############################......aaaaaaa..aaaaa...c",
"....bbbbb.bbbbbbbbb......########################......aaaaaaaaa..aaaaa...c",
"....bbbbb.bbbbbbbbbbb......####################.......aaaaaaaaaa.aaaaaa...c",
"....bbbbbbbbbbbbbbbbbb......##################.......aaaaaaaaaaa.aaaaaa...c",
"....bbbbbbbbbbbbbbbbbbbbb......#############......aaaaaaaaaaaaaaaaaaaaa...c",
"....bbbbbbbbbbbbbbbbbbbbbb......##########......aaaaaaaaaaaaaaaaaaaaaaa...c",
"....bbbbbbbbbbbbbbbbbbbbbbb.......#######......aaaaaaaaaaaaaaaaaaaaaaaa...c",
"....bbbbbbbbbbbbbbbbbbbbbbbbbb......##......aaaaaaaaaaaaaaaaaaaaaaaaaaa...c",
"....bbbbbbbbbbbbbbbbbbbbbbbbbbbb...........aaaaaaaaaaaaaaaaaaaaaaaaaaaa...c",
"....bbbbbbbbbbbbbbbbbbbbbbbbbbbb..........aaaaaaaaaaaaaaaaaaaaaaaaaaaaa...c",
"....bbbbbbbbbbbbbbbbbbbbbbbbbbbbbbb....aaaaaaaaaaaaaaaaaaaaaaaaaaaaaaaa...c",
"....bbbbbbbbbbbbbbbbbbbbbbbbbbbbbbb...aaaaaaaaaaaaaaaaaaaaaaaaaaaaaaaaa...c",
"....bbbbbbbbbbbbbbbbbbbbbbbbbbbbbbb...aaaaaaaaaaaaaaaaaaaaaaaaaaaaaaaaa...c",
"....bbbbbbbbbbbbbbbbbbbbbbbbbbbbbbb...aaaaaaaaaaaaaaaaaaaaaaaaaaaaaaaaa...c",
"....bbbbbbbbbbbbbbbbbbbbbbbbbbbbbbb...aaaaaaaaaaaaaaaaaaaaaaaaaaaaaaaaa...c",
"....bbbbbbbbbbbbbbbbbbbbbbbbbbbbbbb...aaaaaaaaaaaaaaaaaaaaaaaaaaaaaaaaa...c",
"....bbbbbbbbbbbbbbbbbbbbbbbbbbbbbbb...aaaaaaaaaaaaaaaaaaaaaaaaaaaaaaaaa...c",
"....bbbbbbbbbbbbbbbbbbbbbbbbbbbbbbb...aaaaaaaaaaaaaaaaaaaaaaaaaaaaaaaaa...c",
"....bbbbbbbbbbbbbbbbbbbbbbbbbbbbbbb...aaaaaaaaaaaaaaaaaaaaaaaaaaaaaaaaa...c",
"....bbbbbbbbbbbbbbbbbbbbbbbbbbbbbbb...aaaaaaaaaaaaaaaaaaaaaaaaaaaaaaaaa...c",
"....bbbbbbbbbbbbbbbbbbbbbbbbbbbbbbb...aaaaaaaaaaaaaaaaaaaaaaaaaaaaaaaaa...c",
"....bbbbbbbbbbbbbbbbbbbbbbbbbbbbbbb...aaaaaaaaaaaaaaaaaaaaaaaaaaaaaaaa....c",
".......bbbbbbbbbbbbbbbbbbbbbbbbbbbb...aaaaaaaaaaaaaaaaaaaaaaaaaaaaa.......c",
"........bbbbbbbbbbbbbbbbbbbbbbbbbbb...aaaaaaaaaaaaaaaaaaaaaaaaaaaa........c",
".........bbbbbbbbbbbbbbbbbbbbbbbbbb...aaaaaaaaaaaaaaaaaaaaaaaaaaaa........c",
".......bbbbbbbbbbbbbbbbbbbbbbbbbbbb...aaaaaaaaaaaaaaaaaaaaaaaaaaaa........c",
".....bbbbbbbbbbbbbbbbbbbbbbbbbbbbbb...aaaaaaaaaaaaaaaaaaaaaaaaaaaaaaa.....c",
"....bbbbbbbbbbbbbbbbbbbbbbbbbbbbbbb...aaaaaaaaaaaaaaaaaaaaaaaaaa.aaaaa....c",
"....bbbbb.bbbbbbbbbbbbbbbbbbbbbbbbb...aaaaaaaaaaaaaaaaaaaaaaaaaa..aaaaa...c",
"....bb....bbbbbbbbbbbbbbbbbbbbbbbbb...aaaaaaaaaaaaaaaaaaaaaaaaaa.....a....c",
"..........bbbbbbbbbbbbbbbbbbbbbbbbb...aaaaaaaaaaaaaaaaaaaaaaaaaa..........c",
"..........bbbbbbbbbbbbbbbbbbbbbbbbb...aaaaaaaaaaaaaaaaaaaaaaaaaa..........c",
"ccc.......bbbbbbbbbbbbbbbbbbbbbbbbb...aaaaaaaaaaaaaaaaaaaaaaaaaa........ccc",
"cccc......bbbbbbbbbbbbbbbbbbbbbbbbb...aaaaaaaaaaaaaaaaaaaaaaaaaa......ccccc",
"ccccc......bbbbbbbbbbbbbbbbbbbbbbbb...aaaaaaaaaaaaaaaaaaaaaaaaa......cccccc",
"cccccccc......bbbbbbbbbbbbbbbbbbbbb...aaaaaaa.aaaaaaaaaaaaaa......ccccccccc",
"cccccccccc.....bbbbbbbbbbbbbb.bbbbb...aaaaaa..aaaaaaaaaaaaa......cccccccccc",
"cccccccccc......bbbbbbbbbbbbb...bbb...aaaaa..aaaaaaaaaaaa.......ccccccccccc",
"ccccccccccccc......bbbbbbbbbbb........aa....aaaaaaaaaaa......cccccccccccccc",
"ccccccccccccccc......bbbbbbbbbb.............aaaaaaaaaa......ccccccccccccccc",
"cccccccccccccccc......bbbbbbbbb....bbb......aaaaaaaa......ccccccccccccccccc",
"ccccccccccccccccccc......bbbbbbb...bbb.....aaaaaaa......ccccccccccccccccccc",
"ccccccccccccccccccc......bbbbbbb...bbb....aaaaaa.......cccccccccccccccccccc",
"ccccccccccccccccccccc......bbbbbb..bbb...aaaaaa.......ccccccccccccccccccccc",
"ccccccccccccccccccccccc......bbbbb.bbb...aaa......ccccccccccccccccccccccccc",
"ccccccccccccccccccccccccc......bbbbbbb..aaa.......ccccccccccccccccccccccccc",
"cccccccccccccccccccccccccc.......bbbbb..a......cccccccccccccccccccccccccccc",
"ccccccccccccccccccccccccccccc......bbb.......cccccccccccccccccccccccccccccc",
"ccccccccccccccccccccccccccccccc......b......ccccccccccccccccccccccccccccccc",
"cccccccccccccccccccccccccccccccc...........cccccccccccccccccccccccccccccccc",
"ccccccccccccccccccccccccccccccccccc.....ccccccccccccccccccccccccccccccccccc",
"ccccccccccccccccccccccccccccccccccc....cccccccccccccccccccccccccccccccccccc",
"ccccccccccccccccccccccccccccccccccccc.ccccccccccccccccccccccccccccccccccccc",
"ccccccccccccccccccccccccccccccccccccccccccccccccccccccccccccccccccccccccccc"
};
